<?xml version="1.0" encoding="UTF-8"?><svg id="a" xmlns="http://www.w3.org/2000/svg" viewBox="0 0 99.45 99.44"><defs><style>.b{fill:#bc4445;}</style></defs><rect class="b" x="44.59" width="9.1" height="91.1"/><rect class="b" x="45.17" y="-9.18" width="9.1" height="63.39" transform="translate(72.24 -27.2) rotate(90)"/><rect class="b" x="18.04" y="25.92" width="9.1" height="19.28"/><rect class="b" x="4.47" y="40.71" width="9.1" height="18.04" transform="translate(58.75 40.71) rotate(90)"/><rect class="b" y="54.28" width="9.1" height="18.04"/><rect class="b" x="72.31" y="27.05" width="9.1" height="18.04" transform="translate(153.72 72.15) rotate(-180)"/><rect class="b" x="85.87" y="40.61" width="9.1" height="18.04" transform="translate(140.06 -40.79) rotate(90)"/><rect class="b" x="90.35" y="54.18" width="9.1" height="18.04" transform="translate(189.79 126.41) rotate(-180)"/><rect class="b" x="67.99" y="85.79" width="9.1" height="18.04" transform="translate(-22.28 167.35) rotate(-90)"/><rect class="b" x="36.88" y="71.64" width="9.1" height="46.5" transform="translate(-53.45 136.32) rotate(-90)"/><rect class="b" x="72.46" y="72.22" width="9.1" height="18.04" transform="translate(154.02 162.47) rotate(180)"/><rect class="b" x="18.18" y="72.31" width="9.1" height="18.04"/><rect class="b" x="9.12" y="72.31" width="9.1" height="9.1"/><rect class="b" x="81.26" y="72.22" width="9.1" height="9.1"/></svg>