<?xml version="1.0" encoding="UTF-8"?><svg id="a" xmlns="http://www.w3.org/2000/svg" viewBox="0 0 63.68 100.08"><defs><style>.b{fill:#bc4445;}</style></defs><rect class="b" x="27.3" y="90.98" width="9.1" height="9.1" transform="translate(63.69 191.06) rotate(180)"/><rect class="b" x="18.2" y="81.88" width="9.1" height="9.1" transform="translate(45.49 172.86) rotate(180)"/><rect class="b" x="9.1" y="72.78" width="9.1" height="9.1" transform="translate(27.29 154.66) rotate(180)"/><rect class="b" y="45.31" width="9.1" height="27.48" transform="translate(9.1 118.09) rotate(180)"/><rect class="b" x="27.3" y="18.04" width="9.1" height="9.1" transform="translate(63.7 45.18) rotate(180)"/><rect class="b" x="36.39" width="9.1" height="18.04" transform="translate(81.89 18.04) rotate(180)"/><rect class="b" x="18.2" y=".13" width="9.1" height="17.98" transform="translate(45.51 18.23) rotate(180)"/><rect class="b" x="18.2" y="27.14" width="9.1" height="9.1" transform="translate(45.5 63.38) rotate(180)"/><rect class="b" x="9.1" y="36.23" width="9.1" height="9.1" transform="translate(27.31 81.56) rotate(180)"/><rect class="b" x="36.4" y="27.12" width="9.1" height="9.1"/><rect class="b" x="45.49" y="36.21" width="9.1" height="9.1"/><rect class="b" x="54.58" y="45.31" width="9.1" height="27.48"/><rect class="b" x="36.39" y="81.87" width="9.1" height="9.1"/><rect class="b" x="45.48" y="72.78" width="9.1" height="9.1"/></svg>