<svg xmlns="http://www.w3.org/2000/svg" viewBox="0 0 99.45 99.71"><defs><style>.a{fill:#bd4445;}</style></defs><rect class="a" x="45.33" width="9.1" height="72.34"/><rect class="a" x="45.52" y="-8.6" width="9.1" height="63.37" transform="translate(72.82 -27.21) rotate(90)"/><rect class="a" x="18.04" y="27.41" width="9.1" height="18.04"/><rect class="a" x="4.82" y="41.21" width="9.1" height="18.04" transform="translate(59.25 40.63) rotate(90)"/><rect class="a" y="54.54" width="9.1" height="18.04"/><rect class="a" x="72.66" y="27.55" width="9.1" height="18.04" transform="translate(154.07 72.91) rotate(-180)"/><rect class="a" x="86.22" y="41.11" width="9.1" height="18.04" transform="translate(140.56 -40.87) rotate(90)"/><rect class="a" x="90.69" y="54.68" width="9.1" height="18.04" transform="translate(190.14 127.17) rotate(-180)"/><rect class="a" x="45.67" y="63.7" width="9.1" height="63.38" transform="translate(-45.52 145.37) rotate(-90)"/><rect class="a" x="72.8" y="72.71" width="9.1" height="18.41" transform="translate(154.36 163.61) rotate(180)"/><rect class="a" x="18.18" y="72.58" width="9.1" height="18.04"/><rect class="a" x="9.12" y="72.58" width="36.04" height="9.1"/><rect class="a" x="54.25" y="72.48" width="36.11" height="9.1"/></svg>